<svg version="1.1" id="Layer_1" xmlns="http://www.w3.org/2000/svg" xmlns:xlink="http://www.w3.org/1999/xlink" x="0px" y="0px"
	 width="100%" viewBox="0 0 512 512" enable-background="new 0 0 512 512" xml:space="preserve">
<path fill="#D9DCDF" opacity="1.000000" stroke="none" 
	d="
M257.000000,1.000000 
	C265.687561,1.000000 274.375122,1.000000 283.633209,1.378118 
	C284.560822,2.086472 284.877747,2.642172 285.280853,2.713957 
	C295.226318,4.485037 305.196747,6.119074 315.130432,7.952294 
	C333.740295,11.386656 351.323273,18.082256 368.190552,26.334536 
	C384.441589,34.285313 399.946686,43.632805 414.185547,55.011353 
	C433.661194,70.574707 450.668213,88.372902 465.380951,108.490997 
	C475.820312,122.765709 484.563568,138.001572 491.317780,154.249710 
	C496.343079,166.338760 500.716492,178.798904 504.118317,191.433533 
	C507.295471,203.233612 508.778320,215.487534 511.117218,227.520279 
	C511.294891,228.434296 512.351807,229.177429 513.000000,230.000000 
	C513.000000,247.687561 513.000000,265.375122 512.621094,283.632019 
	C511.368195,289.332916 510.579071,294.480621 509.606018,299.593292 
	C504.324768,327.342102 495.941498,354.016144 482.113953,378.806793 
	C473.193634,394.799500 463.499939,410.280365 450.840424,423.617188 
	C441.814941,433.125580 432.902985,442.874237 422.916199,451.302032 
	C411.923218,460.579041 400.269928,469.318054 387.960022,476.721252 
	C375.643158,484.128632 362.432587,490.257599 349.119873,495.749878 
	C331.750488,502.915802 313.593018,507.698517 294.864990,510.113037 
	C291.180481,510.588043 287.618500,512.013062 284.000000,513.000000 
	C275.312439,513.000000 266.624878,513.000000 257.470093,512.531372 
	C257.050812,504.687592 257.098816,497.312439 257.586182,489.952148 
	C261.988220,489.646576 265.956390,488.997101 269.912659,489.062988 
	C286.541626,489.339722 302.605194,485.656616 318.445618,481.475037 
	C337.543701,476.433441 355.563446,468.586273 372.862061,458.789246 
	C391.247375,448.376801 407.664795,435.506531 422.416046,420.711365 
	C434.088226,409.004456 444.492310,396.065674 453.318085,381.825104 
	C465.023438,362.938263 474.052307,343.100830 480.413849,321.799377 
	C487.181061,299.139313 489.591248,276.036682 489.939789,252.588684 
	C490.001099,248.464554 489.391327,244.323730 488.987366,240.200836 
	C488.244415,232.619400 488.242035,224.847214 486.462738,217.510605 
	C482.954346,203.044022 478.819092,188.699524 474.254700,174.526245 
	C468.049072,155.256592 457.753143,138.041504 446.138184,121.567032 
	C434.975861,105.734505 421.529083,92.096062 407.007996,79.345032 
	C394.707123,68.543556 381.323944,59.349510 366.844482,51.972424 
	C355.227692,46.053810 343.102234,40.970978 330.838898,36.518669 
	C307.091949,27.897127 282.308014,24.648380 257.083069,23.589535 
	C257.019897,15.746593 257.009949,8.373296 257.000000,1.000000 
z"/>
<path fill="#55616E" opacity="1.000000" stroke="none" 
	d="
M256.532074,1.000000 
	C257.009949,8.373296 257.019897,15.746593 257.014404,23.562445 
	C256.998993,24.005001 256.866730,23.939480 256.567322,23.990524 
	C235.197296,24.883129 214.334778,27.078981 193.975769,32.980732 
	C167.875031,40.546913 143.665237,51.962193 121.588676,67.861671 
	C108.604553,77.212799 96.761925,87.786827 85.860092,99.527565 
	C73.001007,113.376190 62.027027,128.544769 53.030434,145.085449 
	C36.434917,175.597168 26.812437,208.152222 24.780886,242.955338 
	C23.150721,270.882202 26.387924,298.157928 34.477226,324.873322 
	C43.009468,353.051514 56.607796,378.585999 74.818558,401.721405 
	C91.331993,422.700439 111.062897,440.238312 133.544266,454.322510 
	C146.009995,462.132050 159.653534,468.308075 173.298431,473.928192 
	C191.465637,481.411011 210.529129,486.125336 230.175995,487.989441 
	C239.060059,488.832367 247.972305,489.378357 256.939148,490.025482 
	C257.006500,489.991913 257.146820,489.937286 257.146820,489.937286 
	C257.098816,497.312439 257.050812,504.687592 257.001404,512.531372 
	C250.978851,513.000000 244.957703,513.000000 238.259430,512.639648 
	C222.202454,509.672150 206.523132,508.204193 191.496262,504.254150 
	C136.117706,489.697052 90.702530,459.512665 55.342869,414.445343 
	C26.013517,377.063904 8.577360,334.695496 2.917557,287.492493 
	C2.455679,283.640381 1.647349,279.829865 1.000001,276.000000 
	C1.000000,263.645782 1.000000,251.291550 1.357396,238.255981 
	C6.090668,184.044601 24.828211,136.069031 59.105793,94.775887 
	C102.807404,42.129910 158.940079,11.382761 227.017776,2.842697 
	C231.025818,2.339904 235.006561,1.619265 239.000000,1.000001 
	C244.688049,1.000000 250.376099,1.000000 256.532074,1.000000 
z"/>
<path fill="#F6F7F7" opacity="1.000000" stroke="none" 
	d="
M238.531342,1.000001 
	C235.006561,1.619265 231.025818,2.339904 227.017776,2.842697 
	C158.940079,11.382761 102.807404,42.129910 59.105793,94.775887 
	C24.828211,136.069031 6.090668,184.044601 1.357396,237.787323 
	C1.000000,159.072800 1.000000,80.145592 1.000000,1.000000 
	C80.020760,1.000000 159.041718,1.000000 238.531342,1.000001 
z"/>
<path fill="#F6F7F7" opacity="1.000000" stroke="none" 
	d="
M1.000001,276.468658 
	C1.647349,279.829865 2.455679,283.640381 2.917557,287.492493 
	C8.577360,334.695496 26.013517,377.063904 55.342869,414.445343 
	C90.702530,459.512665 136.117706,489.697052 191.496262,504.254150 
	C206.523132,508.204193 222.202454,509.672150 237.791153,512.639648 
	C159.072952,513.000000 80.145912,513.000000 1.000000,513.000000 
	C1.000000,434.312561 1.000000,355.624939 1.000001,276.468658 
z"/>
<path fill="#F7F7F7" opacity="1.000000" stroke="none" 
	d="
M284.468658,513.000000 
	C287.618500,512.013062 291.180481,510.588043 294.864990,510.113037 
	C313.593018,507.698517 331.750488,502.915802 349.119873,495.749878 
	C362.432587,490.257599 375.643158,484.128632 387.960022,476.721252 
	C400.269928,469.318054 411.923218,460.579041 422.916199,451.302032 
	C432.902985,442.874237 441.814941,433.125580 450.840424,423.617188 
	C463.499939,410.280365 473.193634,394.799500 482.113953,378.806793 
	C495.941498,354.016144 504.324768,327.342102 509.606018,299.593292 
	C510.579071,294.480621 511.368195,289.332916 512.621094,284.100708 
	C513.000000,360.260376 513.000000,436.520752 513.000000,513.000000 
	C436.979248,513.000000 360.958282,513.000000 284.468658,513.000000 
z"/>
<path fill="#F7F7F7" opacity="1.000000" stroke="none" 
	d="
M513.000000,229.531342 
	C512.351807,229.177429 511.294891,228.434296 511.117218,227.520279 
	C508.778320,215.487534 507.295471,203.233612 504.118317,191.433533 
	C500.716492,178.798904 496.343079,166.338760 491.317780,154.249710 
	C484.563568,138.001572 475.820312,122.765709 465.380951,108.490997 
	C450.668213,88.372902 433.661194,70.574707 414.185547,55.011353 
	C399.946686,43.632805 384.441589,34.285313 368.190552,26.334536 
	C351.323273,18.082256 333.740295,11.386656 315.130432,7.952294 
	C305.196747,6.119074 295.226318,4.485037 285.280853,2.713957 
	C284.877747,2.642172 284.560822,2.086472 284.101868,1.378118 
	C360.260376,1.000000 436.520752,1.000000 513.000000,1.000000 
	C513.000000,77.020752 513.000000,153.041718 513.000000,229.531342 
z"/>
<path fill="#ECEDEE" opacity="1.000000" stroke="none" 
	d="
M257.067627,24.032091 
	C282.308014,24.648380 307.091949,27.897127 330.838898,36.518669 
	C343.102234,40.970978 355.227692,46.053810 366.844482,51.972424 
	C381.323944,59.349510 394.707123,68.543556 407.007996,79.345032 
	C421.529083,92.096062 434.975861,105.734505 446.138184,121.567032 
	C457.753143,138.041504 468.049072,155.256592 474.254700,174.526245 
	C478.819092,188.699524 482.954346,203.044022 486.462738,217.510605 
	C488.242035,224.847214 488.244415,232.619400 488.987366,240.200836 
	C489.391327,244.323730 490.001099,248.464554 489.939789,252.588684 
	C489.591248,276.036682 487.181061,299.139313 480.413849,321.799377 
	C474.052307,343.100830 465.023438,362.938263 453.318085,381.825104 
	C444.492310,396.065674 434.088226,409.004456 422.416046,420.711365 
	C407.664795,435.506531 391.247375,448.376801 372.862061,458.789246 
	C355.563446,468.586273 337.543701,476.433441 318.445618,481.475037 
	C302.605194,485.656616 286.541626,489.339722 269.912659,489.062988 
	C265.956390,488.997101 261.988220,489.646576 257.586182,489.952148 
	C257.146820,489.937286 257.006500,489.991913 256.992401,489.555542 
	C256.985168,335.056488 256.992310,180.993851 256.993439,26.931215 
	C256.993469,25.933971 256.910767,24.936726 256.866699,23.939480 
	C256.866730,23.939480 256.998993,24.005001 257.067627,24.032091 
M284.301331,400.998199 
	C276.741180,406.946930 273.272675,414.949890 273.063873,424.352509 
	C272.937927,430.023499 276.014069,432.965698 281.720215,432.973083 
	C318.504791,433.020752 355.289490,433.018280 392.074066,432.974396 
	C397.737122,432.967621 399.970642,430.818176 400.952972,424.215546 
	C398.801727,407.198975 390.177521,396.914886 374.271332,393.788147 
	C369.350800,392.820892 367.252533,390.412689 365.065552,386.377289 
	C359.069275,375.312988 349.425812,369.039703 336.802643,369.157135 
	C324.223206,369.274139 314.441559,375.476654 308.805573,386.752228 
	C306.495728,391.373413 303.453217,392.861481 298.899200,394.142090 
	C294.018768,395.514404 289.589722,398.491821 284.301331,400.998199 
M316.301453,104.996727 
	C308.751190,110.950714 305.269073,118.946762 305.063141,128.352142 
	C304.938965,134.021744 308.014374,136.966751 313.719482,136.974197 
	C350.504639,137.022217 387.289886,137.020081 424.075043,136.976135 
	C429.734711,136.969376 431.974213,134.812958 432.953430,128.215332 
	C430.815338,111.218346 422.175812,100.917870 406.274170,97.788185 
	C401.358002,96.820602 399.253143,94.418510 397.064758,90.380432 
	C391.069794,79.318153 381.431152,73.041801 368.805237,73.157173 
	C356.222076,73.272171 346.443695,79.472336 340.810120,90.750992 
	C338.501221,95.373497 335.453766,96.859207 330.901947,98.140900 
	C326.020935,99.515282 321.589996,102.487984 316.301453,104.996727 
M396.720795,309.236511 
	C407.881439,305.227997 416.662018,298.239014 423.294434,288.400574 
	C437.869019,266.780884 436.058746,238.342255 418.316528,219.245483 
	C401.965668,201.646255 377.650299,195.574142 354.333893,205.722900 
	C319.320862,220.962708 309.567444,267.088684 335.806427,294.780396 
	C352.355896,312.246155 372.754669,317.538910 396.720795,309.236511 
M317.959106,213.563797 
	C314.075226,211.315918 310.233490,208.990921 306.297180,206.838898 
	C300.875305,203.874634 296.065735,204.852661 293.728180,209.247177 
	C291.484039,213.466171 293.491821,218.245789 298.737000,221.196381 
	C302.213745,223.152191 305.683075,225.121216 309.156097,227.083664 
	C313.996704,229.818954 318.229156,229.445816 320.804932,226.057404 
	C323.936676,221.937576 323.257507,218.225357 317.959106,213.563797 
M419.097076,173.156952 
	C418.194458,173.569138 416.892700,173.730682 416.451752,174.432800 
	C412.598999,180.567062 408.324890,186.539398 405.376495,193.099442 
	C403.671753,196.892487 406.317505,200.413956 410.445862,202.083572 
	C414.598541,203.763031 417.723663,201.935135 419.869232,198.728241 
	C422.725128,194.459625 425.204803,189.917114 427.577332,185.352570 
	C431.062836,178.646759 427.616882,173.266251 419.097076,173.156952 
M461.035065,301.400177 
	C459.578918,298.787170 458.709076,295.425354 456.537994,293.725403 
	C452.660706,290.689392 448.079163,288.496429 443.641541,286.248016 
	C439.054840,283.924042 434.978668,284.993774 432.734406,288.705536 
	C430.154602,292.972290 431.139862,297.080841 435.881378,300.161469 
	C440.051636,302.870972 444.363129,305.400421 448.781769,307.680878 
	C454.511902,310.638123 458.945831,308.529449 461.035065,301.400177 
M340.304932,336.833191 
	C342.709991,332.656067 345.247528,328.548431 347.485748,324.283752 
	C350.135956,319.234039 349.097015,314.877777 344.991699,312.581268 
	C340.651611,310.153381 336.678406,311.260223 333.613281,316.126526 
	C331.138580,320.055389 328.936005,324.163483 326.756927,328.268616 
	C324.119873,333.236481 324.744415,337.013611 328.449432,339.729645 
	C331.818970,342.199738 335.918854,341.375336 340.304932,336.833191 
M423.738098,321.751068 
	C422.139771,319.228577 420.789398,316.497284 418.883240,314.234070 
	C416.230896,311.084930 412.851013,310.392975 409.067169,312.531128 
	C405.468140,314.564880 403.930420,317.978210 405.495941,321.378418 
	C408.255280,327.371552 411.635895,333.151215 415.376953,338.593689 
	C417.780121,342.089874 421.890900,341.996460 425.249207,339.840149 
	C428.841034,337.533905 430.085754,333.945007 428.143219,329.834534 
	C426.938812,327.286041 425.455414,324.869354 423.738098,321.751068 
M449.816620,224.317169 
	C452.629669,222.575577 455.688202,221.126205 458.195190,219.020264 
	C461.515045,216.231461 462.158386,212.453247 459.769714,208.727631 
	C457.380066,205.000519 453.618439,203.906357 449.755615,205.854355 
	C444.588959,208.459854 439.572632,211.449463 434.799622,214.723007 
	C430.774902,217.483353 430.322815,221.686798 432.939270,225.623917 
	C435.189728,229.010208 439.492340,229.936371 443.523773,227.845474 
	C445.438934,226.852173 447.301025,225.756607 449.816620,224.317169 
M321.825714,296.184814 
	C323.772461,289.489349 318.922394,283.078766 313.107574,285.402924 
	C306.865417,287.897827 301.044769,291.635010 295.405701,295.380371 
	C292.053101,297.607117 292.114319,301.546570 293.869263,304.844025 
	C295.671539,308.230499 299.314941,310.316803 302.697784,308.565247 
	C309.230072,305.182953 315.246918,300.805145 321.825714,296.184814 
M325.127899,182.156326 
	C328.114166,187.698380 330.912537,193.353165 334.148071,198.745636 
	C336.589325,202.814331 341.040863,203.696335 344.926483,201.442780 
	C348.763458,199.217438 350.121521,194.823746 347.959991,190.679428 
	C345.657227,186.264359 343.154633,181.948105 340.604218,177.669220 
	C338.435944,174.031387 335.127502,172.146866 330.930176,173.193695 
	C326.910797,174.196136 324.986603,177.181992 325.127899,182.156326 
M289.943176,265.005737 
	C294.749817,265.003479 299.559662,265.110535 304.362152,264.968414 
	C309.226379,264.824432 312.905640,261.314362 312.948578,257.067047 
	C312.991577,252.814606 309.331360,249.203033 304.495972,249.037338 
	C299.860382,248.878510 295.214600,248.940872 290.574646,249.003860 
	C285.167938,249.077225 281.389221,252.105316 281.065948,256.492279 
	C280.766327,260.558960 283.740173,263.718231 289.943176,265.005737 
M447.342194,264.785919 
	C452.976227,264.857849 458.612274,265.053802 464.243713,264.964172 
	C469.150543,264.886078 472.838440,261.426971 472.948547,257.178253 
	C473.063263,252.751968 469.264435,249.155670 464.102661,249.019241 
	C459.627960,248.900986 455.144806,249.090866 450.670715,248.961288 
	C446.127686,248.829712 442.769562,250.706314 441.431366,254.969086 
	C439.986664,259.571045 442.666443,262.494934 447.342194,264.785919 
M369.000061,329.059540 
	C368.997253,334.205475 368.867767,339.355377 369.028229,344.496216 
	C369.180450,349.373230 372.769867,352.995636 377.056305,352.960449 
	C381.340576,352.925293 384.819153,349.289459 384.980316,344.384064 
	C385.127411,339.906769 385.053284,335.420776 385.013824,330.939178 
	C384.966614,325.576630 382.483002,321.966187 378.369354,321.152527 
	C374.344269,320.356384 371.077881,322.826935 369.000061,329.059540 
M370.261566,165.094620 
	C369.836761,171.488800 369.185577,177.878555 369.060364,184.278595 
	C368.963837,189.210449 372.562927,192.860168 376.853516,192.949524 
	C381.341675,193.043015 384.859924,189.308578 384.992249,184.072083 
	C385.109711,179.422775 384.960052,174.767227 385.035126,170.116165 
	C385.102295,165.955536 383.148712,163.036942 379.460419,161.519318 
	C375.901245,160.054779 373.021179,161.620407 370.261566,165.094620 
z"/>
<path fill="#68727E" opacity="1.000000" stroke="none" 
	d="
M256.567291,23.990524 
	C256.910767,24.936726 256.993469,25.933971 256.993439,26.931215 
	C256.992310,180.993851 256.985168,335.056488 256.925049,489.589111 
	C247.972305,489.378357 239.060059,488.832367 230.175995,487.989441 
	C210.529129,486.125336 191.465637,481.411011 173.298431,473.928192 
	C159.653534,468.308075 146.009995,462.132050 133.544266,454.322510 
	C111.062897,440.238312 91.331993,422.700439 74.818558,401.721405 
	C56.607796,378.585999 43.009468,353.051514 34.477226,324.873322 
	C26.387924,298.157928 23.150721,270.882202 24.780886,242.955338 
	C26.812437,208.152222 36.434917,175.597168 53.030434,145.085449 
	C62.027027,128.544769 73.001007,113.376190 85.860092,99.527565 
	C96.761925,87.786827 108.604553,77.212799 121.588676,67.861671 
	C143.665237,51.962193 167.875031,40.546913 193.975769,32.980732 
	C214.334778,27.078981 235.197296,24.883129 256.567291,23.990524 
M106.322838,226.261185 
	C97.832672,237.745255 95.438896,250.960327 97.301010,264.590790 
	C101.524918,295.509277 129.233582,316.565582 160.439713,312.770172 
	C169.848495,311.625793 178.819519,308.261871 186.349335,302.032776 
	C190.653610,298.472046 190.821335,294.233765 186.348938,289.817627 
	C183.832260,288.610870 181.397720,287.176392 178.785614,286.234253 
	C161.643829,280.051453 150.640503,261.260284 153.526413,243.325455 
	C155.217072,232.818619 159.969528,224.231628 168.373871,217.701035 
	C171.429504,215.326660 172.788132,212.251816 171.934189,208.497894 
	C171.054779,204.632019 168.265839,202.640594 164.437164,202.266083 
	C159.328445,201.766342 154.135162,200.738113 149.093369,201.198334 
	C131.286453,202.823669 116.786697,210.531342 106.322838,226.261185 
M189.646652,121.814194 
	C189.084656,122.159027 188.448196,122.423119 187.972717,122.861725 
	C184.744781,125.839226 184.067291,129.350388 186.233398,133.174149 
	C188.160736,136.576385 192.897583,138.031281 196.758316,136.448837 
	C200.601135,134.873764 202.384338,131.875504 201.824448,127.744514 
	C201.266647,123.628906 197.885773,121.029045 193.292831,121.018539 
	C192.315125,121.016296 191.336761,121.309814 189.646652,121.814194 
M104.389900,173.754959 
	C104.764862,173.020050 105.264938,172.321960 105.493782,171.544067 
	C106.672890,167.536026 105.521324,164.220001 101.925613,162.162949 
	C98.458923,160.179703 94.811310,160.378143 91.752464,163.094086 
	C88.831482,165.687622 88.152863,169.029907 89.942566,172.568558 
	C91.844994,176.330093 95.211281,177.560608 99.136467,176.790955 
	C100.814026,176.462021 102.307220,175.192810 104.389900,173.754959 
M178.159912,405.111267 
	C179.248672,406.102905 180.183548,407.415924 181.455505,408.025024 
	C185.050110,409.746429 188.621338,409.494232 191.570236,406.614136 
	C194.225586,404.020721 194.731003,400.829529 193.067673,397.487549 
	C191.180038,393.694855 187.844452,392.556152 183.894989,393.125305 
	C178.571945,393.892456 176.264664,398.295258 178.159912,405.111267 
M102.722588,367.416199 
	C103.198708,366.956177 103.751266,366.552490 104.138618,366.027039 
	C106.765808,362.463013 106.616661,358.894836 103.776970,355.585266 
	C101.275223,352.669586 96.093597,352.060791 92.813904,354.246857 
	C89.564499,356.412781 88.341965,359.528290 89.402298,363.321930 
	C90.498474,367.243774 94.299751,369.478851 98.780449,368.892975 
	C99.903923,368.746063 100.976883,368.212830 102.722588,367.416199 
M241.174057,348.404724 
	C242.881165,344.071106 241.800369,340.546143 237.871216,338.106720 
	C234.412064,335.959106 229.481552,336.797241 226.992859,339.836975 
	C224.497421,342.884979 224.232864,346.259674 226.472473,349.484802 
	C228.983765,353.101135 232.710999,353.811096 236.640396,352.416412 
	C238.231613,351.851654 239.453201,350.245453 241.174057,348.404724 
M45.636127,256.187531 
	C53.459015,258.221313 59.468979,253.741730 57.699051,247.117020 
	C56.689377,243.337875 54.061436,241.272995 50.138290,241.032288 
	C46.286949,240.796005 43.243885,242.245285 41.734581,245.908813 
	C40.044018,250.012314 41.366280,253.339645 45.636127,256.187531 
M205.646667,233.814178 
	C205.084686,234.159012 204.448227,234.423096 203.972733,234.861694 
	C200.744781,237.839188 200.067322,241.350357 202.233414,245.174103 
	C204.160721,248.576355 208.897522,250.031265 212.758286,248.448837 
	C216.601089,246.873779 218.384338,243.875549 217.824448,239.744537 
	C217.266663,235.628952 213.885773,233.029053 209.292862,233.018539 
	C208.315155,233.016296 207.336792,233.309814 205.646667,233.814178 
z"/>
<path fill="#F6A050" opacity="1.000000" stroke="none" 
	d="
M396.349731,309.365692 
	C372.754669,317.538910 352.355896,312.246155 335.806427,294.780396 
	C309.567444,267.088684 319.320862,220.962708 354.333893,205.722900 
	C377.650299,195.574142 401.965668,201.646255 418.316528,219.245483 
	C436.058746,238.342255 437.869019,266.780884 423.294434,288.400574 
	C416.662018,298.239014 407.881439,305.227997 396.349731,309.365692 
M337.495789,260.918579 
	C337.653290,261.902649 337.806030,262.887543 337.969055,263.870697 
	C341.321472,284.088013 358.022034,296.937103 377.695831,296.804688 
	C390.958984,296.715454 402.179688,290.978058 409.794769,279.629150 
	C421.463898,262.238434 418.447662,239.116638 401.826691,225.934189 
	C392.167236,218.273026 381.161285,215.789734 369.050171,218.040298 
	C349.753204,221.626190 335.572784,239.757187 337.495789,260.918579 
z"/>
<path fill="#C6C9CE" opacity="1.000000" stroke="none" 
	d="
M316.962646,104.763153 
	C321.589996,102.487984 326.020935,99.515282 330.901947,98.140900 
	C335.453766,96.859207 338.501221,95.373497 340.810120,90.750992 
	C346.443695,79.472336 356.222076,73.272171 368.805237,73.157173 
	C381.431152,73.041801 391.069794,79.318153 397.064758,90.380432 
	C399.253143,94.418510 401.358002,96.820602 406.274170,97.788185 
	C422.175812,100.917870 430.815338,111.218346 432.470520,128.614288 
	C396.083466,129.008789 360.179321,129.012939 324.275146,128.993866 
	C315.244995,128.989059 311.314392,123.981575 313.527802,115.081650 
	C314.400085,111.574341 315.801941,108.198738 316.962646,104.763153 
z"/>
<path fill="#C6C9CE" opacity="1.000000" stroke="none" 
	d="
M284.963654,400.768738 
	C289.589722,398.491821 294.018768,395.514404 298.899200,394.142090 
	C303.453217,392.861481 306.495728,391.373413 308.805573,386.752228 
	C314.441559,375.476654 324.223206,369.274139 336.802643,369.157135 
	C349.425812,369.039703 359.069275,375.312988 365.065552,386.377289 
	C367.252533,390.412689 369.350800,392.820892 374.271332,393.788147 
	C390.177521,396.914886 398.801727,407.198975 400.470093,424.614502 
	C364.084534,425.008545 328.181885,425.011902 292.279205,424.992950 
	C283.248718,424.988190 279.314758,419.982025 281.527527,411.086578 
	C282.399963,407.579376 283.802490,404.204102 284.963654,400.768738 
z"/>
<path fill="#B5B9BF" opacity="1.000000" stroke="none" 
	d="
M316.632050,104.879944 
	C315.801941,108.198738 314.400085,111.574341 313.527802,115.081650 
	C311.314392,123.981575 315.244995,128.989059 324.275146,128.993866 
	C360.179321,129.012939 396.083466,129.008789 432.446655,129.028732 
	C431.974213,134.812958 429.734711,136.969376 424.075043,136.976135 
	C387.289886,137.020081 350.504639,137.022217 313.719482,136.974197 
	C308.014374,136.966751 304.938965,134.021744 305.063141,128.352142 
	C305.269073,118.946762 308.751190,110.950714 316.632050,104.879944 
z"/>
<path fill="#B4B9BF" opacity="1.000000" stroke="none" 
	d="
M284.632507,400.883484 
	C283.802490,404.204102 282.399963,407.579376 281.527527,411.086578 
	C279.314758,419.982025 283.248718,424.988190 292.279205,424.992950 
	C328.181885,425.011902 364.084534,425.008545 400.446167,425.028931 
	C399.970642,430.818176 397.737122,432.967621 392.074066,432.974396 
	C355.289490,433.018280 318.504791,433.020752 281.720215,432.973083 
	C276.014069,432.965698 272.937927,430.023499 273.063873,424.352509 
	C273.272675,414.949890 276.741180,406.946930 284.632507,400.883484 
z"/>
<path fill="#F3A255" opacity="1.000000" stroke="none" 
	d="
M318.273041,213.749359 
	C323.257507,218.225357 323.936676,221.937576 320.804932,226.057404 
	C318.229156,229.445816 313.996704,229.818954 309.156097,227.083664 
	C305.683075,225.121216 302.213745,223.152191 298.737000,221.196381 
	C293.491821,218.245789 291.484039,213.466171 293.728180,209.247177 
	C296.065735,204.852661 300.875305,203.874634 306.297180,206.838898 
	C310.233490,208.990921 314.075226,211.315918 318.273041,213.749359 
z"/>
<path fill="#F3A156" opacity="1.000000" stroke="none" 
	d="
M419.488403,173.104980 
	C427.616882,173.266251 431.062836,178.646759 427.577332,185.352570 
	C425.204803,189.917114 422.725128,194.459625 419.869232,198.728241 
	C417.723663,201.935135 414.598541,203.763031 410.445862,202.083572 
	C406.317505,200.413956 403.671753,196.892487 405.376495,193.099442 
	C408.324890,186.539398 412.598999,180.567062 416.451752,174.432800 
	C416.892700,173.730682 418.194458,173.569138 419.488403,173.104980 
z"/>
<path fill="#F3A256" opacity="1.000000" stroke="none" 
	d="
M461.011169,301.803558 
	C458.945831,308.529449 454.511902,310.638123 448.781769,307.680878 
	C444.363129,305.400421 440.051636,302.870972 435.881378,300.161469 
	C431.139862,297.080841 430.154602,292.972290 432.734406,288.705536 
	C434.978668,284.993774 439.054840,283.924042 443.641541,286.248016 
	C448.079163,288.496429 452.660706,290.689392 456.537994,293.725403 
	C458.709076,295.425354 459.578918,298.787170 461.011169,301.803558 
z"/>
<path fill="#F3A156" opacity="1.000000" stroke="none" 
	d="
M340.087128,337.133240 
	C335.918854,341.375336 331.818970,342.199738 328.449432,339.729645 
	C324.744415,337.013611 324.119873,333.236481 326.756927,328.268616 
	C328.936005,324.163483 331.138580,320.055389 333.613281,316.126526 
	C336.678406,311.260223 340.651611,310.153381 344.991699,312.581268 
	C349.097015,314.877777 350.135956,319.234039 347.485748,324.283752 
	C345.247528,328.548431 342.709991,332.656067 340.087128,337.133240 
z"/>
<path fill="#F3A155" opacity="1.000000" stroke="none" 
	d="
M423.917664,322.072296 
	C425.455414,324.869354 426.938812,327.286041 428.143219,329.834534 
	C430.085754,333.945007 428.841034,337.533905 425.249207,339.840149 
	C421.890900,341.996460 417.780121,342.089874 415.376953,338.593689 
	C411.635895,333.151215 408.255280,327.371552 405.495941,321.378418 
	C403.930420,317.978210 405.468140,314.564880 409.067169,312.531128 
	C412.851013,310.392975 416.230896,311.084930 418.883240,314.234070 
	C420.789398,316.497284 422.139771,319.228577 423.917664,322.072296 
z"/>
<path fill="#F3A255" opacity="1.000000" stroke="none" 
	d="
M449.501892,224.512268 
	C447.301025,225.756607 445.438934,226.852173 443.523773,227.845474 
	C439.492340,229.936371 435.189728,229.010208 432.939270,225.623917 
	C430.322815,221.686798 430.774902,217.483353 434.799622,214.723007 
	C439.572632,211.449463 444.588959,208.459854 449.755615,205.854355 
	C453.618439,203.906357 457.380066,205.000519 459.769714,208.727631 
	C462.158386,212.453247 461.515045,216.231461 458.195190,219.020264 
	C455.688202,221.126205 452.629669,222.575577 449.501892,224.512268 
z"/>
<path fill="#F3A155" opacity="1.000000" stroke="none" 
	d="
M321.651581,296.512451 
	C315.246918,300.805145 309.230072,305.182953 302.697784,308.565247 
	C299.314941,310.316803 295.671539,308.230499 293.869263,304.844025 
	C292.114319,301.546570 292.053101,297.607117 295.405701,295.380371 
	C301.044769,291.635010 306.865417,287.897827 313.107574,285.402924 
	C318.922394,283.078766 323.772461,289.489349 321.651581,296.512451 
z"/>
<path fill="#F4A156" opacity="1.000000" stroke="none" 
	d="
M325.098877,181.763077 
	C324.986603,177.181992 326.910797,174.196136 330.930176,173.193695 
	C335.127502,172.146866 338.435944,174.031387 340.604218,177.669220 
	C343.154633,181.948105 345.657227,186.264359 347.959991,190.679428 
	C350.121521,194.823746 348.763458,199.217438 344.926483,201.442780 
	C341.040863,203.696335 336.589325,202.814331 334.148071,198.745636 
	C330.912537,193.353165 328.114166,187.698380 325.098877,181.763077 
z"/>
<path fill="#F4A053" opacity="1.000000" stroke="none" 
	d="
M289.502258,264.995941 
	C283.740173,263.718231 280.766327,260.558960 281.065948,256.492279 
	C281.389221,252.105316 285.167938,249.077225 290.574646,249.003860 
	C295.214600,248.940872 299.860382,248.878510 304.495972,249.037338 
	C309.331360,249.203033 312.991577,252.814606 312.948578,257.067047 
	C312.905640,261.314362 309.226379,264.824432 304.362152,264.968414 
	C299.559662,265.110535 294.749817,265.003479 289.502258,264.995941 
z"/>
<path fill="#F4A053" opacity="1.000000" stroke="none" 
	d="
M446.946533,264.652283 
	C442.666443,262.494934 439.986664,259.571045 441.431366,254.969086 
	C442.769562,250.706314 446.127686,248.829712 450.670715,248.961288 
	C455.144806,249.090866 459.627960,248.900986 464.102661,249.019241 
	C469.264435,249.155670 473.063263,252.751968 472.948547,257.178253 
	C472.838440,261.426971 469.150543,264.886078 464.243713,264.964172 
	C458.612274,265.053802 452.976227,264.857849 446.946533,264.652283 
z"/>
<path fill="#F4A054" opacity="1.000000" stroke="none" 
	d="
M369.031189,328.625732 
	C371.077881,322.826935 374.344269,320.356384 378.369354,321.152527 
	C382.483002,321.966187 384.966614,325.576630 385.013824,330.939178 
	C385.053284,335.420776 385.127411,339.906769 384.980316,344.384064 
	C384.819153,349.289459 381.340576,352.925293 377.056305,352.960449 
	C372.769867,352.995636 369.180450,349.373230 369.028229,344.496216 
	C368.867767,339.355377 368.997253,334.205475 369.031189,328.625732 
z"/>
<path fill="#F4A054" opacity="1.000000" stroke="none" 
	d="
M370.491882,164.768066 
	C373.021179,161.620407 375.901245,160.054779 379.460419,161.519318 
	C383.148712,163.036942 385.102295,165.955536 385.035126,170.116165 
	C384.960052,174.767227 385.109711,179.422775 384.992249,184.072083 
	C384.859924,189.308578 381.341675,193.043015 376.853516,192.949524 
	C372.562927,192.860168 368.963837,189.210449 369.060364,184.278595 
	C369.185577,177.878555 369.836761,171.488800 370.491882,164.768066 
z"/>
<path fill="#FDC352" opacity="1.000000" stroke="none" 
	d="
M106.873184,225.871323 
	C116.786697,210.531342 131.286453,202.823669 149.093369,201.198334 
	C154.135162,200.738113 159.328445,201.766342 164.437164,202.266083 
	C168.265839,202.640594 171.054779,204.632019 171.934189,208.497894 
	C172.788132,212.251816 171.429504,215.326660 168.373871,217.701035 
	C159.969528,224.231628 155.217072,232.818619 153.526413,243.325455 
	C150.640503,261.260284 161.643829,280.051453 178.785614,286.234253 
	C181.397720,287.176392 183.832260,288.610870 186.377380,290.265930 
	C183.649902,291.840485 180.931198,293.070190 178.132294,294.076965 
	C150.935333,303.859772 118.402100,288.180206 108.778969,260.971130 
	C104.672768,249.361023 103.834053,237.771240 106.873184,225.871323 
z"/>
<path fill="#F4A050" opacity="1.000000" stroke="none" 
	d="
M106.598007,226.066254 
	C103.834053,237.771240 104.672768,249.361023 108.778969,260.971130 
	C118.402100,288.180206 150.935333,303.859772 178.132294,294.076965 
	C180.931198,293.070190 183.649902,291.840485 186.647125,290.494019 
	C190.821335,294.233765 190.653610,298.472046 186.349335,302.032776 
	C178.819519,308.261871 169.848495,311.625793 160.439713,312.770172 
	C129.233582,316.565582 101.524918,295.509277 97.301010,264.590790 
	C95.438896,250.960327 97.832672,237.745255 106.598007,226.066254 
z"/>
<path fill="#E5E7EB" opacity="1.000000" stroke="none" 
	d="
M190.002686,121.640625 
	C191.336761,121.309814 192.315125,121.016296 193.292831,121.018539 
	C197.885773,121.029045 201.266647,123.628906 201.824448,127.744514 
	C202.384338,131.875504 200.601135,134.873764 196.758316,136.448837 
	C192.897583,138.031281 188.160736,136.576385 186.233398,133.174149 
	C184.067291,129.350388 184.744781,125.839226 187.972717,122.861725 
	C188.448196,122.423119 189.084656,122.159027 190.002686,121.640625 
z"/>
<path fill="#E5E7EA" opacity="1.000000" stroke="none" 
	d="
M104.137047,174.052902 
	C102.307220,175.192810 100.814026,176.462021 99.136467,176.790955 
	C95.211281,177.560608 91.844994,176.330093 89.942566,172.568558 
	C88.152863,169.029907 88.831482,165.687622 91.752464,163.094086 
	C94.811310,160.378143 98.458923,160.179703 101.925613,162.162949 
	C105.521324,164.220001 106.672890,167.536026 105.493782,171.544067 
	C105.264938,172.321960 104.764862,173.020050 104.137047,174.052902 
z"/>
<path fill="#E5E7EA" opacity="1.000000" stroke="none" 
	d="
M177.996765,404.754089 
	C176.264664,398.295258 178.571945,393.892456 183.894989,393.125305 
	C187.844452,392.556152 191.180038,393.694855 193.067673,397.487549 
	C194.731003,400.829529 194.225586,404.020721 191.570236,406.614136 
	C188.621338,409.494232 185.050110,409.746429 181.455505,408.025024 
	C180.183548,407.415924 179.248672,406.102905 177.996765,404.754089 
z"/>
<path fill="#E5E7EA" opacity="1.000000" stroke="none" 
	d="
M102.397820,367.636658 
	C100.976883,368.212830 99.903923,368.746063 98.780449,368.892975 
	C94.299751,369.478851 90.498474,367.243774 89.402298,363.321930 
	C88.341965,359.528290 89.564499,356.412781 92.813904,354.246857 
	C96.093597,352.060791 101.275223,352.669586 103.776970,355.585266 
	C106.616661,358.894836 106.765808,362.463013 104.138618,366.027039 
	C103.751266,366.552490 103.198708,366.956177 102.397820,367.636658 
z"/>
<path fill="#E5E7EA" opacity="1.000000" stroke="none" 
	d="
M241.008514,348.758942 
	C239.453201,350.245453 238.231613,351.851654 236.640396,352.416412 
	C232.710999,353.811096 228.983765,353.101135 226.472473,349.484802 
	C224.232864,346.259674 224.497421,342.884979 226.992859,339.836975 
	C229.481552,336.797241 234.412064,335.959106 237.871216,338.106720 
	C241.800369,340.546143 242.881165,344.071106 241.008514,348.758942 
z"/>
<path fill="#E5E7EA" opacity="1.000000" stroke="none" 
	d="
M45.277992,256.023834 
	C41.366280,253.339645 40.044018,250.012314 41.734581,245.908813 
	C43.243885,242.245285 46.286949,240.796005 50.138290,241.032288 
	C54.061436,241.272995 56.689377,243.337875 57.699051,247.117020 
	C59.468979,253.741730 53.459015,258.221313 45.277992,256.023834 
z"/>
<path fill="#E5E7EB" opacity="1.000000" stroke="none" 
	d="
M206.002701,233.640625 
	C207.336792,233.309814 208.315155,233.016296 209.292862,233.018539 
	C213.885773,233.029053 217.266663,235.628952 217.824448,239.744537 
	C218.384338,243.875549 216.601089,246.873779 212.758286,248.448837 
	C208.897522,250.031265 204.160721,248.576355 202.233414,245.174103 
	C200.067322,241.350357 200.744781,237.839188 203.972733,234.861694 
	C204.448227,234.423096 205.084686,234.159012 206.002701,233.640625 
z"/>
<path fill="#FFC450" opacity="1.000000" stroke="none" 
	d="
M337.465881,260.536285 
	C335.572784,239.757187 349.753204,221.626190 369.050171,218.040298 
	C381.161285,215.789734 392.167236,218.273026 401.826691,225.934189 
	C418.447662,239.116638 421.463898,262.238434 409.794769,279.629150 
	C402.179688,290.978058 390.958984,296.715454 377.695831,296.804688 
	C358.022034,296.937103 341.321472,284.088013 337.969055,263.870697 
	C337.806030,262.887543 337.653290,261.902649 337.465881,260.536285 
z"/>
</svg>